<mxfile host="app.diagrams.net" agent="Mozilla/5.0 (Windows NT 10.0; Win64; x64) AppleWebKit/537.36 (KHTML, like Gecko) Chrome/129.0.0.0 Safari/537.36 Edg/129.0.0.0" version="24.8.3">
  <diagram name="第 1 页" id="6bw314A6MfzhlVDHU-7o">
    <mxGraphModel dx="1631" dy="879" grid="1" gridSize="10" guides="1" tooltips="1" connect="1" arrows="1" fold="1" page="1" pageScale="1" pageWidth="827" pageHeight="1169" math="0" shadow="0">
      <root>
        <mxCell id="0" />
        <mxCell id="1" parent="0" />
        <mxCell id="vKPPYnK1cpY7t1Gn1v3--15" value="" style="ellipse;whiteSpace=wrap;html=1;aspect=fixed;" vertex="1" parent="1">
          <mxGeometry x="214" y="130" width="400" height="400" as="geometry" />
        </mxCell>
        <mxCell id="vKPPYnK1cpY7t1Gn1v3--14" value="" style="ellipse;whiteSpace=wrap;html=1;aspect=fixed;fillColor=#969696;" vertex="1" parent="1">
          <mxGeometry x="239" y="155" width="350" height="350" as="geometry" />
        </mxCell>
        <mxCell id="vKPPYnK1cpY7t1Gn1v3--1" value="" style="ellipse;whiteSpace=wrap;html=1;aspect=fixed;fillColor=#969696;strokeColor=#36393d;" vertex="1" parent="1">
          <mxGeometry x="264" y="180" width="300" height="300" as="geometry" />
        </mxCell>
        <mxCell id="vKPPYnK1cpY7t1Gn1v3--3" value="" style="ellipse;whiteSpace=wrap;html=1;aspect=fixed;" vertex="1" parent="1">
          <mxGeometry x="289" y="205" width="250" height="250" as="geometry" />
        </mxCell>
        <mxCell id="vKPPYnK1cpY7t1Gn1v3--2" value="" style="ellipse;whiteSpace=wrap;html=1;aspect=fixed;fillColor=#969696;" vertex="1" parent="1">
          <mxGeometry x="314" y="230" width="200" height="200" as="geometry" />
        </mxCell>
        <mxCell id="vKPPYnK1cpY7t1Gn1v3--4" value="" style="ellipse;whiteSpace=wrap;html=1;aspect=fixed;fillColor=#969696;" vertex="1" parent="1">
          <mxGeometry x="339" y="255" width="150" height="150" as="geometry" />
        </mxCell>
        <mxCell id="vKPPYnK1cpY7t1Gn1v3--5" value="" style="ellipse;whiteSpace=wrap;html=1;aspect=fixed;fillColor=#969696;" vertex="1" parent="1">
          <mxGeometry x="364" y="280" width="100" height="100" as="geometry" />
        </mxCell>
        <mxCell id="vKPPYnK1cpY7t1Gn1v3--6" value="" style="ellipse;whiteSpace=wrap;html=1;aspect=fixed;" vertex="1" parent="1">
          <mxGeometry x="389" y="305" width="50" height="50" as="geometry" />
        </mxCell>
        <mxCell id="vKPPYnK1cpY7t1Gn1v3--7" value="" style="shape=waypoint;sketch=0;fillStyle=solid;size=6;pointerEvents=1;points=[];fillColor=none;resizable=0;rotatable=0;perimeter=centerPerimeter;snapToPoint=1;strokeWidth=3;" vertex="1" parent="1">
          <mxGeometry x="404" y="320" width="20" height="20" as="geometry" />
        </mxCell>
        <mxCell id="vKPPYnK1cpY7t1Gn1v3--8" value="" style="shape=waypoint;sketch=0;fillStyle=solid;size=6;pointerEvents=1;points=[];fillColor=none;resizable=0;rotatable=0;perimeter=centerPerimeter;snapToPoint=1;" vertex="1" parent="1">
          <mxGeometry x="414" y="380" width="20" height="20" as="geometry" />
        </mxCell>
        <mxCell id="vKPPYnK1cpY7t1Gn1v3--9" value="" style="shape=waypoint;sketch=0;fillStyle=solid;size=6;pointerEvents=1;points=[];fillColor=none;resizable=0;rotatable=0;perimeter=centerPerimeter;snapToPoint=1;" vertex="1" parent="1">
          <mxGeometry x="350" y="250" width="20" height="20" as="geometry" />
        </mxCell>
        <mxCell id="vKPPYnK1cpY7t1Gn1v3--10" value="" style="shape=waypoint;sketch=0;fillStyle=solid;size=6;pointerEvents=1;points=[];fillColor=none;resizable=0;rotatable=0;perimeter=centerPerimeter;snapToPoint=1;" vertex="1" parent="1">
          <mxGeometry x="280" y="385" width="20" height="20" as="geometry" />
        </mxCell>
        <mxCell id="vKPPYnK1cpY7t1Gn1v3--11" value="" style="shape=waypoint;sketch=0;fillStyle=solid;size=6;pointerEvents=1;points=[];fillColor=none;resizable=0;rotatable=0;perimeter=centerPerimeter;snapToPoint=1;" vertex="1" parent="1">
          <mxGeometry x="434" y="340" width="20" height="20" as="geometry" />
        </mxCell>
        <mxCell id="vKPPYnK1cpY7t1Gn1v3--12" value="" style="shape=waypoint;sketch=0;fillStyle=solid;size=6;pointerEvents=1;points=[];fillColor=none;resizable=0;rotatable=0;perimeter=centerPerimeter;snapToPoint=1;" vertex="1" parent="1">
          <mxGeometry x="480" y="300" width="20" height="20" as="geometry" />
        </mxCell>
        <mxCell id="vKPPYnK1cpY7t1Gn1v3--13" value="" style="shape=waypoint;sketch=0;fillStyle=solid;size=6;pointerEvents=1;points=[];fillColor=none;resizable=0;rotatable=0;perimeter=centerPerimeter;snapToPoint=1;" vertex="1" parent="1">
          <mxGeometry x="530" y="250" width="20" height="20" as="geometry" />
        </mxCell>
        <mxCell id="vKPPYnK1cpY7t1Gn1v3--16" value="" style="shape=waypoint;sketch=0;fillStyle=solid;size=6;pointerEvents=1;points=[];fillColor=none;resizable=0;rotatable=0;perimeter=centerPerimeter;snapToPoint=1;" vertex="1" parent="1">
          <mxGeometry x="320" y="340" width="20" height="20" as="geometry" />
        </mxCell>
        <mxCell id="vKPPYnK1cpY7t1Gn1v3--17" value="" style="shape=waypoint;sketch=0;fillStyle=solid;size=6;pointerEvents=1;points=[];fillColor=none;resizable=0;rotatable=0;perimeter=centerPerimeter;snapToPoint=1;" vertex="1" parent="1">
          <mxGeometry x="320" y="340" width="20" height="20" as="geometry" />
        </mxCell>
        <mxCell id="vKPPYnK1cpY7t1Gn1v3--18" value="" style="shape=waypoint;sketch=0;fillStyle=solid;size=6;pointerEvents=1;points=[];fillColor=none;resizable=0;rotatable=0;perimeter=centerPerimeter;snapToPoint=1;" vertex="1" parent="1">
          <mxGeometry x="320" y="340" width="20" height="20" as="geometry" />
        </mxCell>
        <mxCell id="vKPPYnK1cpY7t1Gn1v3--19" value="" style="shape=waypoint;sketch=0;fillStyle=solid;size=6;pointerEvents=1;points=[];fillColor=none;resizable=0;rotatable=0;perimeter=centerPerimeter;snapToPoint=1;" vertex="1" parent="1">
          <mxGeometry x="269" y="255" width="20" height="20" as="geometry" />
        </mxCell>
        <mxCell id="vKPPYnK1cpY7t1Gn1v3--20" value="" style="shape=waypoint;sketch=0;fillStyle=solid;size=6;pointerEvents=1;points=[];fillColor=none;resizable=0;rotatable=0;perimeter=centerPerimeter;snapToPoint=1;" vertex="1" parent="1">
          <mxGeometry x="434" y="160" width="20" height="20" as="geometry" />
        </mxCell>
        <mxCell id="vKPPYnK1cpY7t1Gn1v3--21" value="" style="shape=waypoint;sketch=0;fillStyle=solid;size=6;pointerEvents=1;points=[];fillColor=none;resizable=0;rotatable=0;perimeter=centerPerimeter;snapToPoint=1;" vertex="1" parent="1">
          <mxGeometry x="544" y="410" width="20" height="20" as="geometry" />
        </mxCell>
        <mxCell id="vKPPYnK1cpY7t1Gn1v3--25" value="" style="endArrow=none;html=1;rounded=0;entryX=0.586;entryY=0.871;entryDx=0;entryDy=0;entryPerimeter=0;exitX=0.614;exitY=0.871;exitDx=0;exitDy=0;exitPerimeter=0;" edge="1" parent="1" source="vKPPYnK1cpY7t1Gn1v3--18" target="vKPPYnK1cpY7t1Gn1v3--7">
          <mxGeometry width="50" height="50" relative="1" as="geometry">
            <mxPoint x="30" y="400" as="sourcePoint" />
            <mxPoint x="80" y="350" as="targetPoint" />
          </mxGeometry>
        </mxCell>
        <mxCell id="vKPPYnK1cpY7t1Gn1v3--26" value="" style="endArrow=classic;startArrow=classic;html=1;rounded=0;entryX=1;entryY=0.5;entryDx=0;entryDy=0;exitX=0.897;exitY=1.043;exitDx=0;exitDy=0;exitPerimeter=0;" edge="1" parent="1" source="vKPPYnK1cpY7t1Gn1v3--7" target="vKPPYnK1cpY7t1Gn1v3--15">
          <mxGeometry width="50" height="50" relative="1" as="geometry">
            <mxPoint x="310" y="380" as="sourcePoint" />
            <mxPoint x="360" y="330" as="targetPoint" />
          </mxGeometry>
        </mxCell>
        <mxCell id="vKPPYnK1cpY7t1Gn1v3--27" value="" style="ellipse;whiteSpace=wrap;html=1;aspect=fixed;" vertex="1" parent="1">
          <mxGeometry x="790" y="170" width="400" height="400" as="geometry" />
        </mxCell>
        <mxCell id="vKPPYnK1cpY7t1Gn1v3--35" value="" style="shape=waypoint;sketch=0;fillStyle=solid;size=6;pointerEvents=1;points=[];fillColor=none;resizable=0;rotatable=0;perimeter=centerPerimeter;snapToPoint=1;strokeWidth=3;" vertex="1" parent="1">
          <mxGeometry x="980" y="360" width="20" height="20" as="geometry" />
        </mxCell>
        <mxCell id="vKPPYnK1cpY7t1Gn1v3--36" value="" style="shape=waypoint;sketch=0;fillStyle=solid;size=6;pointerEvents=1;points=[];fillColor=none;resizable=0;rotatable=0;perimeter=centerPerimeter;snapToPoint=1;" vertex="1" parent="1">
          <mxGeometry x="990" y="420" width="20" height="20" as="geometry" />
        </mxCell>
        <mxCell id="vKPPYnK1cpY7t1Gn1v3--37" value="" style="shape=waypoint;sketch=0;fillStyle=solid;size=6;pointerEvents=1;points=[];fillColor=none;resizable=0;rotatable=0;perimeter=centerPerimeter;snapToPoint=1;" vertex="1" parent="1">
          <mxGeometry x="926" y="290" width="20" height="20" as="geometry" />
        </mxCell>
        <mxCell id="vKPPYnK1cpY7t1Gn1v3--38" value="" style="shape=waypoint;sketch=0;fillStyle=solid;size=6;pointerEvents=1;points=[];fillColor=none;resizable=0;rotatable=0;perimeter=centerPerimeter;snapToPoint=1;" vertex="1" parent="1">
          <mxGeometry x="856" y="425" width="20" height="20" as="geometry" />
        </mxCell>
        <mxCell id="vKPPYnK1cpY7t1Gn1v3--39" value="" style="shape=waypoint;sketch=0;fillStyle=solid;size=6;pointerEvents=1;points=[];fillColor=none;resizable=0;rotatable=0;perimeter=centerPerimeter;snapToPoint=1;" vertex="1" parent="1">
          <mxGeometry x="1010" y="380" width="20" height="20" as="geometry" />
        </mxCell>
        <mxCell id="vKPPYnK1cpY7t1Gn1v3--40" value="" style="shape=waypoint;sketch=0;fillStyle=solid;size=6;pointerEvents=1;points=[];fillColor=none;resizable=0;rotatable=0;perimeter=centerPerimeter;snapToPoint=1;" vertex="1" parent="1">
          <mxGeometry x="1056" y="340" width="20" height="20" as="geometry" />
        </mxCell>
        <mxCell id="vKPPYnK1cpY7t1Gn1v3--41" value="" style="shape=waypoint;sketch=0;fillStyle=solid;size=6;pointerEvents=1;points=[];fillColor=none;resizable=0;rotatable=0;perimeter=centerPerimeter;snapToPoint=1;" vertex="1" parent="1">
          <mxGeometry x="1106" y="290" width="20" height="20" as="geometry" />
        </mxCell>
        <mxCell id="vKPPYnK1cpY7t1Gn1v3--42" value="" style="shape=waypoint;sketch=0;fillStyle=solid;size=6;pointerEvents=1;points=[];fillColor=none;resizable=0;rotatable=0;perimeter=centerPerimeter;snapToPoint=1;" vertex="1" parent="1">
          <mxGeometry x="896" y="380" width="20" height="20" as="geometry" />
        </mxCell>
        <mxCell id="vKPPYnK1cpY7t1Gn1v3--43" value="" style="shape=waypoint;sketch=0;fillStyle=solid;size=6;pointerEvents=1;points=[];fillColor=none;resizable=0;rotatable=0;perimeter=centerPerimeter;snapToPoint=1;" vertex="1" parent="1">
          <mxGeometry x="896" y="380" width="20" height="20" as="geometry" />
        </mxCell>
        <mxCell id="vKPPYnK1cpY7t1Gn1v3--44" value="" style="shape=waypoint;sketch=0;fillStyle=solid;size=6;pointerEvents=1;points=[];fillColor=none;resizable=0;rotatable=0;perimeter=centerPerimeter;snapToPoint=1;" vertex="1" parent="1">
          <mxGeometry x="896" y="380" width="20" height="20" as="geometry" />
        </mxCell>
        <mxCell id="vKPPYnK1cpY7t1Gn1v3--45" value="" style="shape=waypoint;sketch=0;fillStyle=solid;size=6;pointerEvents=1;points=[];fillColor=none;resizable=0;rotatable=0;perimeter=centerPerimeter;snapToPoint=1;" vertex="1" parent="1">
          <mxGeometry x="845" y="295" width="20" height="20" as="geometry" />
        </mxCell>
        <mxCell id="vKPPYnK1cpY7t1Gn1v3--46" value="" style="shape=waypoint;sketch=0;fillStyle=solid;size=6;pointerEvents=1;points=[];fillColor=none;resizable=0;rotatable=0;perimeter=centerPerimeter;snapToPoint=1;" vertex="1" parent="1">
          <mxGeometry x="1010" y="200" width="20" height="20" as="geometry" />
        </mxCell>
        <mxCell id="vKPPYnK1cpY7t1Gn1v3--47" value="" style="shape=waypoint;sketch=0;fillStyle=solid;size=6;pointerEvents=1;points=[];fillColor=none;resizable=0;rotatable=0;perimeter=centerPerimeter;snapToPoint=1;" vertex="1" parent="1">
          <mxGeometry x="1120" y="450" width="20" height="20" as="geometry" />
        </mxCell>
        <mxCell id="vKPPYnK1cpY7t1Gn1v3--49" value="" style="endArrow=classic;startArrow=classic;html=1;rounded=0;entryX=1;entryY=0.5;entryDx=0;entryDy=0;exitX=0.897;exitY=1.043;exitDx=0;exitDy=0;exitPerimeter=0;" edge="1" parent="1" source="vKPPYnK1cpY7t1Gn1v3--35" target="vKPPYnK1cpY7t1Gn1v3--27">
          <mxGeometry width="50" height="50" relative="1" as="geometry">
            <mxPoint x="886" y="420" as="sourcePoint" />
            <mxPoint x="936" y="370" as="targetPoint" />
          </mxGeometry>
        </mxCell>
      </root>
    </mxGraphModel>
  </diagram>
</mxfile>
